<?xml version="1.0" encoding="UTF-8" standalone="no"?>
<!-- Generator: Adobe Illustrator 13.0.2, SVG Export Plug-In  -->
<svg
   xmlns:dc="http://purl.org/dc/elements/1.1/"
   xmlns:cc="http://creativecommons.org/ns#"
   xmlns:rdf="http://www.w3.org/1999/02/22-rdf-syntax-ns#"
   xmlns:svg="http://www.w3.org/2000/svg"
   xmlns="http://www.w3.org/2000/svg"
   xmlns:sodipodi="http://sodipodi.sourceforge.net/DTD/sodipodi-0.dtd"
   xmlns:inkscape="http://www.inkscape.org/namespaces/inkscape"
   version="1.2"
   baseProfile="tiny"
   x="0px"
   y="0px"
   width="41px"
   height="41px"
   viewBox="-0.204 -0.074 41 41"
   xml:space="preserve"
   id="svg2"
   sodipodi:version="0.32"
   inkscape:version="0.46"
   sodipodi:docname="information.svg"
   inkscape:output_extension="org.inkscape.output.svg.inkscape"><metadata
   id="metadata13"><rdf:RDF><cc:Work
       rdf:about=""><dc:format>image/svg+xml</dc:format><dc:type
         rdf:resource="http://purl.org/dc/dcmitype/StillImage" /></cc:Work></rdf:RDF></metadata><sodipodi:namedview
   inkscape:window-height="667"
   inkscape:window-width="967"
   inkscape:pageshadow="2"
   inkscape:pageopacity="0.0"
   guidetolerance="10.0"
   gridtolerance="10.0"
   objecttolerance="10.0"
   borderopacity="1.0"
   bordercolor="#666666"
   pagecolor="#ffffff"
   id="base"
   showgrid="false"
   inkscape:zoom="11.268293"
   inkscape:cx="7.4545455"
   inkscape:cy="20.5"
   inkscape:window-x="306"
   inkscape:window-y="80"
   inkscape:current-layer="svg2" />
<defs
   id="defs4"><inkscape:perspective
   sodipodi:type="inkscape:persp3d"
   inkscape:vp_x="0 : 20.5 : 1"
   inkscape:vp_y="0 : 1000 : 0"
   inkscape:vp_z="41 : 20.5 : 1"
   inkscape:persp3d-origin="20.5 : 13.666667 : 1"
   id="perspective15" />

	

		
	</defs>
<path
   d="M 39.023808,20.266233 C 39.023808,30.724069 30.54658,39.201297 20.088744,39.201297 C 9.630908,39.201297 1.1536798,30.724069 1.1536798,20.266233 C 1.1536798,9.8083972 9.630908,1.331169 20.088744,1.331169 C 30.54658,1.331169 39.023808,9.8083972 39.023808,20.266233 z M 25.00902,12.788776 L 24.181558,12.788776 L 16.132262,14.122751 L 15.903148,14.949267 L 16.361376,14.949267 C 17.237123,14.949267 18.292753,15.27211 18.292753,16.33058 C 18.292753,16.973425 17.833578,18.445627 17.649908,19.088472 L 14.752843,28.654466 C 14.474497,29.527373 14.245383,30.447617 14.245383,31.366914 C 14.245383,33.161958 15.763975,34.218535 17.419847,34.218535 C 20.684252,34.218535 23.167585,30.908686 24.639786,28.287126 L 23.858715,27.873395 C 23.261314,28.792692 21.744615,31.182297 20.639754,31.182297 C 20.316911,31.182297 20.087797,30.81401 20.087797,30.494008 C 20.087797,29.987495 20.41064,28.698964 20.595257,28.192451 L 25.00902,12.788776 z M 20.316911,8.05217 C 20.316911,9.8898179 21.790059,11.362019 23.629601,11.362019 C 25.466302,11.362019 26.93945,9.8898179 26.93945,8.05217 C 26.93945,6.2126285 25.466302,4.7404273 23.629601,4.7404273 C 21.790059,4.7404273 20.316911,6.2116817 20.316911,8.05217 z"
   id="path10"
   style="fill:#0097cf;fill-opacity:1" />
</svg>