<?xml version="1.0" encoding="iso-8859-1"?>
<!-- Generator: Adobe Illustrator 13.0.2, SVG Export Plug-In . SVG Version: 6.00 Build 14948)  -->
<svg version="1.2" baseProfile="tiny" id="Layer_1" xmlns="http://www.w3.org/2000/svg" xmlns:xlink="http://www.w3.org/1999/xlink"
	 x="0px" y="0px" width="64px" height="64px" viewBox="0 0 64 64" xml:space="preserve">
<g>
	<polygon style="fill:none;" points="63,63 1,63 1,1 63,1 	"/>
	<path style="fill:none;" d="M64,0v64H0V0H64 M62,2H2v60h60V2L62,2z"/>
</g>
<g>
	<path style="fill:#E6E6E6;" d="M29.73,13.597v2.543l12.715,15.762h5.087L60.247,16.14v-2.543H29.73z M42.45,49.086l5.073-4.238
		V31.903H42.45V49.086z"/>
</g>
<rect x="6.284" y="13.429" style="fill:#E6E6E6;" width="4.475" height="2.237"/>
<rect x="12.995" y="13.429" style="fill:#E6E6E6;" width="10.269" height="2.237"/>
<rect x="6.284" y="17.903" style="fill:#E6E6E6;" width="4.475" height="2.237"/>
<rect x="12.995" y="17.903" style="fill:#E6E6E6;" width="11.185" height="2.237"/>
<rect x="6.284" y="22.377" style="fill:#E6E6E6;" width="4.475" height="2.236"/>
<rect x="12.995" y="22.377" style="fill:#E6E6E6;" width="11.185" height="2.236"/>
<polygon style="fill:#E6E6E6;" points="26.416,22.377 26.416,24.613 29.953,24.613 28.148,22.377 "/>
<rect x="6.284" y="26.85" style="fill:#E6E6E6;" width="4.475" height="2.237"/>
<rect x="12.995" y="26.85" style="fill:#E6E6E6;" width="11.185" height="2.237"/>
<polygon style="fill:#E6E6E6;" points="26.416,26.85 26.416,29.087 33.126,29.087 33.126,28.547 31.757,26.85 "/>
<rect x="6.284" y="31.323" style="fill:#E6E6E6;" width="4.475" height="2.237"/>
<rect x="12.995" y="31.323" style="fill:#E6E6E6;" width="11.185" height="2.237"/>
<rect x="26.416" y="31.323" style="fill:#E6E6E6;" width="6.71" height="2.237"/>
<polygon style="fill:#E6E6E6;" points="35.363,31.323 35.363,33.561 37.17,33.561 35.366,31.323 "/>
<rect x="6.284" y="35.797" style="fill:#E6E6E6;" width="4.475" height="2.237"/>
<rect x="12.995" y="35.797" style="fill:#E6E6E6;" width="11.185" height="2.237"/>
<rect x="26.416" y="35.797" style="fill:#E6E6E6;" width="6.71" height="2.237"/>
<rect x="35.363" y="35.797" style="fill:#E6E6E6;" width="2.904" height="2.237"/>
<rect x="6.284" y="40.271" style="fill:#E6E6E6;" width="4.475" height="2.236"/>
<rect x="12.995" y="40.271" style="fill:#E6E6E6;" width="11.185" height="2.236"/>
<rect x="26.416" y="40.271" style="fill:#E6E6E6;" width="6.71" height="2.236"/>
<rect x="35.363" y="40.271" style="fill:#E6E6E6;" width="2.904" height="2.236"/>
</svg>
