<?xml version="1.0" encoding="UTF-8" standalone="no"?>
<!-- Generator: Adobe Illustrator 13.0.2, SVG Export Plug-In . SVG Version: 6.00 Build 14948)  -->

<svg
   xmlns:dc="http://purl.org/dc/elements/1.1/"
   xmlns:cc="http://creativecommons.org/ns#"
   xmlns:rdf="http://www.w3.org/1999/02/22-rdf-syntax-ns#"
   xmlns:svg="http://www.w3.org/2000/svg"
   xmlns="http://www.w3.org/2000/svg"
   xmlns:sodipodi="http://sodipodi.sourceforge.net/DTD/sodipodi-0.dtd"
   xmlns:inkscape="http://www.inkscape.org/namespaces/inkscape"
   version="1.2"
   id="Layer_1"
   x="0px"
   y="0px"
   width="64px"
   height="64px"
   viewBox="0 0 64 64"
   xml:space="preserve"
   inkscape:version="0.91 r13725"
   sodipodi:docname="log_filter.svg"><metadata
     id="metadata3395"><rdf:RDF><cc:Work
         rdf:about=""><dc:format>image/svg+xml</dc:format><dc:type
           rdf:resource="http://purl.org/dc/dcmitype/StillImage" /><dc:title></dc:title></cc:Work></rdf:RDF></metadata><defs
     id="defs3393" /><sodipodi:namedview
     pagecolor="#ffffff"
     bordercolor="#666666"
     borderopacity="1"
     objecttolerance="10"
     gridtolerance="10"
     guidetolerance="10"
     inkscape:pageopacity="0"
     inkscape:pageshadow="2"
     inkscape:window-width="1680"
     inkscape:window-height="988"
     id="namedview3391"
     showgrid="false"
     inkscape:zoom="12.796875"
     inkscape:cx="32"
     inkscape:cy="32"
     inkscape:window-x="-8"
     inkscape:window-y="-8"
     inkscape:window-maximized="1"
     inkscape:current-layer="Layer_1" /><g
     id="g3337"><polygon
       style="fill:none;"
       points="63,63 1,63 1,1 63,1  "
       id="polygon3339" /><path
       style="fill:none;"
       d="M64,0v64H0V0H64 M62,2H2v60h60V2L62,2z"
       id="path3341" /></g><g
     id="g3343"><path
       style="fill:#4D4D4D;"
       d="M29.73,13.597v2.543l12.715,15.762h5.087L60.247,16.14v-2.543H29.73z M42.45,49.086l5.073-4.238   V31.903H42.45V49.086z"
       id="path3345" /></g><rect
     x="6.284"
     y="13.429"
     style="fill:#4D4D4D;"
     width="4.475"
     height="2.237"
     id="rect3347" /><rect
     x="12.995"
     y="13.429"
     style="fill:#4D4D4D;"
     width="10.269"
     height="2.237"
     id="rect3349" /><rect
     x="6.284"
     y="17.903"
     style="fill:#4D4D4D;"
     width="4.475"
     height="2.237"
     id="rect3351" /><rect
     x="12.995"
     y="17.903"
     style="fill:#4D4D4D;"
     width="11.185"
     height="2.237"
     id="rect3353" /><rect
     x="6.284"
     y="22.377"
     style="fill:#4D4D4D;"
     width="4.475"
     height="2.236"
     id="rect3355" /><rect
     x="12.995"
     y="22.377"
     style="fill:#4D4D4D;"
     width="11.185"
     height="2.236"
     id="rect3357" /><polygon
     style="fill:#E6E6E6;"
     points="26.416,22.377 26.416,24.613 29.953,24.613 28.148,22.377 "
     id="polygon3359" /><rect
     x="6.284"
     y="26.85"
     style="fill:#4D4D4D;"
     width="4.475"
     height="2.237"
     id="rect3361" /><rect
     x="12.995"
     y="26.85"
     style="fill:#4D4D4D;"
     width="11.185"
     height="2.237"
     id="rect3363" /><polygon
     style="fill:#E6E6E6;"
     points="26.416,26.85 26.416,29.087 33.126,29.087 33.126,28.547 31.757,26.85 "
     id="polygon3365" /><rect
     x="6.284"
     y="31.323"
     style="fill:#4D4D4D;"
     width="4.475"
     height="2.237"
     id="rect3367" /><rect
     x="12.995"
     y="31.323"
     style="fill:#4D4D4D;"
     width="11.185"
     height="2.237"
     id="rect3369" /><rect
     x="26.416"
     y="31.323"
     style="fill:#4D4D4D;"
     width="6.71"
     height="2.237"
     id="rect3371" /><polygon
     style="fill:#E6E6E6;"
     points="35.363,31.323 35.363,33.561 37.17,33.561 35.366,31.323 "
     id="polygon3373" /><rect
     x="6.284"
     y="35.797"
     style="fill:#4D4D4D;"
     width="4.475"
     height="2.237"
     id="rect3375" /><rect
     x="12.995"
     y="35.797"
     style="fill:#4D4D4D;"
     width="11.185"
     height="2.237"
     id="rect3377" /><rect
     x="26.416"
     y="35.797"
     style="fill:#4D4D4D;"
     width="6.71"
     height="2.237"
     id="rect3379" /><rect
     x="35.363"
     y="35.797"
     style="fill:#4D4D4D;"
     width="2.904"
     height="2.237"
     id="rect3381" /><rect
     x="6.284"
     y="40.271"
     style="fill:#4D4D4D;"
     width="4.475"
     height="2.236"
     id="rect3383" /><rect
     x="12.995"
     y="40.271"
     style="fill:#4D4D4D;"
     width="11.185"
     height="2.236"
     id="rect3385" /><rect
     x="26.416"
     y="40.271"
     style="fill:#4D4D4D;"
     width="6.71"
     height="2.236"
     id="rect3387" /><rect
     x="35.363"
     y="40.271"
     style="fill:#4D4D4D;"
     width="2.904"
     height="2.236"
     id="rect3389" /><path
     style="fill:#4d4d4d;stroke:none;stroke-width:1px;stroke-linecap:butt;stroke-linejoin:miter;stroke-opacity:1;fill-opacity:1"
     d="m 26.45177,23.505739 0,-1.133089 0.843426,0 0.843425,0 0.875744,1.084297 c 0.48166,0.596363 0.875745,1.106253 0.875745,1.133089 0,0.02683 -0.773626,0.04879 -1.71917,0.04879 l -1.71917,0 0,-1.133089 z"
     id="path3397"
     inkscape:connector-curvature="0" /><path
     style="fill:#4d4d4d;stroke:none;stroke-width:1px;stroke-linecap:butt;stroke-linejoin:miter;stroke-opacity:1;fill-opacity:1"
     d="m 26.45177,27.959951 0,-1.133089 2.643651,0 2.643651,0 0.677473,0.851749 c 0.568033,0.714157 0.677472,0.897196 0.677472,1.133089 l 0,0.28134 -3.321123,0 -3.321124,0 0,-1.133089 z"
     id="path3399"
     inkscape:connector-curvature="0" /><path
     style="fill:#4d4d4d;stroke:none;stroke-width:1px;stroke-linecap:butt;stroke-linejoin:miter;stroke-opacity:1;fill-opacity:1"
     d="m 35.360195,32.440212 c 0,-0.608873 0.01367,-1.092389 0.03039,-1.074481 0.01671,0.01791 0.419996,0.516076 0.896185,1.107041 l 0.865797,1.074481 -0.896186,0 -0.896185,0 0,-1.107041 z"
     id="path3401"
     inkscape:connector-curvature="0" /></svg>