<?xml version="1.0" encoding="UTF-8" standalone="no"?>
<!-- Generator: Adobe Illustrator 13.0.2, SVG Export Plug-In . SVG Version: 6.00 Build 14948)  -->
<svg
   xmlns:dc="http://purl.org/dc/elements/1.1/"
   xmlns:cc="http://creativecommons.org/ns#"
   xmlns:rdf="http://www.w3.org/1999/02/22-rdf-syntax-ns#"
   xmlns:svg="http://www.w3.org/2000/svg"
   xmlns="http://www.w3.org/2000/svg"
   xmlns:sodipodi="http://sodipodi.sourceforge.net/DTD/sodipodi-0.dtd"
   xmlns:inkscape="http://www.inkscape.org/namespaces/inkscape"
   version="1.2"
   baseProfile="tiny"
   id="Layer_1"
   x="0px"
   y="0px"
   width="65px"
   height="65px"
   viewBox="-0.969 -0.96 65 65"
   xml:space="preserve"
   sodipodi:version="0.32"
   inkscape:version="0.46"
   sodipodi:docname="warning_active.svg"
   inkscape:output_extension="org.inkscape.output.svg.inkscape"><metadata
   id="metadata10"><rdf:RDF><cc:Work
       rdf:about=""><dc:format>image/svg+xml</dc:format><dc:type
         rdf:resource="http://purl.org/dc/dcmitype/StillImage" /></cc:Work></rdf:RDF></metadata><defs
   id="defs8"><inkscape:perspective
     sodipodi:type="inkscape:persp3d"
     inkscape:vp_x="0 : 32.5 : 1"
     inkscape:vp_y="0 : 1000 : 0"
     inkscape:vp_z="65 : 32.5 : 1"
     inkscape:persp3d-origin="32.5 : 21.666667 : 1"
     id="perspective12" /></defs><sodipodi:namedview
   inkscape:window-height="774"
   inkscape:window-width="1280"
   inkscape:pageshadow="2"
   inkscape:pageopacity="0.0"
   guidetolerance="10.0"
   gridtolerance="10.0"
   objecttolerance="10.0"
   borderopacity="1.0"
   bordercolor="#666666"
   pagecolor="#ffffff"
   id="base"
   showgrid="false"
   inkscape:zoom="7.1076923"
   inkscape:cx="-8.8636362"
   inkscape:cy="32.5"
   inkscape:window-x="-4"
   inkscape:window-y="-4"
   inkscape:current-layer="Layer_1" />
<path
   style="fill:#E7AD63"
   d="M 9.5711948,57.405973 L 9.5711948,54.633343 L 9.5711948,51.862023 L 53.24568,51.862023 C 54.41786,51.862023 55.054373,51.560793 55.296667,51.35779 L 55.296667,51.35779 C 55.527174,51.136451 55.578253,51.077514 55.608375,50.629597 L 55.608375,50.629597 C 55.610995,50.268122 55.478715,49.635537 55.001985,48.816976 L 55.001985,48.816976 L 33.166707,10.991599 C 32.299686,9.5404531 31.618644,9.3976957 31.406473,9.4042442 L 31.406473,9.4042442 C 31.195612,9.3950761 30.513259,9.5404531 29.648859,10.991599 L 29.648859,10.991599 L 7.809651,48.822214 C 7.3329208,49.638157 7.2032615,50.264192 7.20588,50.629597 L 7.20588,50.629597 C 7.2333843,51.077514 7.2857722,51.136451 7.5188981,51.35779 L 7.5188981,51.35779 C 7.7585724,51.559482 8.3990148,51.862023 9.5711948,51.862023 L 9.5711948,51.862023 L 9.5711948,54.633343 L 9.5711948,57.405973 C 7.4900845,57.405973 5.5595905,56.887332 4.0468903,55.681101 L 4.0468903,55.681101 C 2.521092,54.494516 1.6278783,52.548305 1.6580014,50.630907 L 1.6580014,50.630907 C 1.6606208,49.063199 2.1556861,47.513826 3.0096088,46.043037 L 3.0096088,46.043037 L 24.846198,8.2176579 C 26.271148,5.7056579 28.60503,3.8694621 31.406473,3.8602942 L 31.406473,3.8602942 C 34.207916,3.865533 36.540488,5.7056579 37.968059,8.2176579 L 37.968059,8.2176579 L 59.809885,46.043037 C 60.657259,47.516446 61.152325,49.06189 61.154945,50.630907 L 61.154945,50.630907 C 61.182448,52.549614 60.293163,54.489276 58.768675,55.681101 L 58.768675,55.681101 C 57.254665,56.888643 55.322861,57.405973 53.24568,57.405973 L 53.24568,57.405973 L 9.5711948,57.405973 L 9.5711948,57.405973 z"
   id="path3" />
<path
   style="fill:#E7AD63"
   d="M 36.641335,24.333489 C 36.641335,25.525314 36.480242,27.01182 36.155436,28.791699 C 35.831941,30.571579 35.420697,32.329193 34.923012,34.063232 C 34.425326,35.798582 33.995745,37.020529 33.634269,37.729076 C 33.422098,38.137702 33.19683,38.423216 32.954536,38.588238 C 32.712242,38.75326 32.335048,38.83577 31.822957,38.83577 C 31.326582,38.83577 30.961176,38.755879 30.72674,38.597405 C 30.490994,38.438932 30.253939,38.148179 30.014265,37.727766 C 29.605639,36.911825 29.157722,35.671541 28.666586,34.004296 C 28.176759,32.338361 27.762894,30.621347 27.422373,28.855875 C 27.084471,27.090402 26.912901,25.581631 26.912901,24.32956 C 26.912901,21.94591 27.424992,20.192225 28.451795,19.068505 C 29.477289,17.946094 30.602319,17.382923 31.822957,17.382923 C 33.046215,17.382923 34.154218,17.940855 35.150898,19.058027 C 36.144959,20.176508 36.641335,21.935432 36.641335,24.333489 z M 36.641335,44.722861 C 36.641335,46.081017 36.177701,47.229623 35.250436,48.173914 C 34.32186,49.116897 33.179804,49.588388 31.821647,49.588388 C 30.991298,49.588388 30.193693,49.373597 29.423591,48.942707 C 28.654798,48.513126 28.043169,47.917214 27.591324,47.15497 C 27.139478,46.392726 26.911591,45.582023 26.911591,44.724172 C 26.911591,43.849293 27.134239,43.03859 27.579536,42.292063 C 28.026144,41.545535 28.623365,40.954861 29.379062,40.517422 C 30.132138,40.079984 30.946769,39.859954 31.821647,39.859954 C 32.667712,39.859954 33.470556,40.079984 34.232801,40.517422 C 34.995045,40.954861 35.585718,41.541606 36.006131,42.282895 C 36.431783,43.017635 36.641335,43.832267 36.641335,44.722861 z"
   id="path5" />
</svg>